{"title":"Priest.2011.R5.XviD-Skila","uid":6442661,"size":1304408064,"categoryP":"video","categoryS":"movies","magnet":"?xt=urn:btih:3398b84b08ac9ed4c2387ff540c00f6452ed4872&amp;dn=Priest.2011.R5.XviD-Skila&amp;tr=udp%3A%2F%2Ftracker.openbittorrent.com%3A80&amp;tr=udp%3A%2F%2Fopen.demonii.com%3A1337&amp;tr=udp%3A%2F%2Ftracker.coppersurfer.tk%3A6969&amp;tr=udp%3A%2F%2Fexodus.desync.com%3A6969","seeders":0,"leechers":1,"uploader":"razvanripper","files":-1,"time":1307021761,"description":"General\nComplete name                    : Priest.2011.R5.XviD-Skila.avi\nFormat                           : AVI\nFormat/Info                      : Audio Video Interleave\nFile size                        : 1.17 GiB\nDuration                         : 1h 23mn\nOverall bit rate                 : 2 007 Kbps\nWriting application              : VirtualDubMod 1.5.10.2 (build 2540/release)\nWriting library                  : VirtualDubMod build 2540/release\n\nVideo\nID                               : 0\nFormat                           : MPEG-4 Visual\nFormat profile                   : Advanced Simple@L5\nFormat settings, BVOP            : Yes\nFormat settings, QPel            : No\nFormat settings, GMC             : No warppoints\nFormat settings, Matrix          : Custom\nCodec ID                         : XVID\nCodec ID/Hint                    : XviD\nDuration                         : 1h 23mn\nBit rate                         : 1 880 Kbps\nWidth                            : 720 pixels\nHeight                           : 304 pixels\nDisplay aspect ratio             : 2.35:1\nFrame rate                       : 25.000 fps\nColor space                      : YUV\nChroma subsampling               : 4:2:0\nBit depth                        : 8 bits\nScan type                        : Progressive\nCompression mode                 : Lossy\nBits/(Pixel*Frame)               : 0.344\nStream size                      : 1.10 GiB (94%)\nWriting library                  : XviD 58\n\nAudio\nID                               : 1\nFormat                           : MPEG Audio\nCodec ID                         : 55\nCodec ID/Hint                    : MP3\nDuration                         : 1h 16mn\nBit rate                         : 128 Kbps\nChannel(s)                       : 2 channels\nSampling rate                    : 48.0 KHz\nCompression mode                 : Lossy\nStream size                      : 70.4 MiB (6%)\nAlignment                        : Split accross interleaves\nInterleave, duration             : 44 ms (1.09 video frame)\nInterleave, preload duration     : 504 ms\n\n\n","torrent":{"xt":"urn:btih:3398b84b08ac9ed4c2387ff540c00f6452ed4872","amp;dn":"Priest.2011.R5.XviD-Skila","amp;tr":["udp%3A%2F%2Ftracker.openbittorrent.com%3A80","udp%3A%2F%2Fopen.demonii.com%3A1337","udp%3A%2F%2Ftracker.coppersurfer.tk%3A6969","udp%3A%2F%2Fexodus.desync.com%3A6969"],"infoHash":"3398b84b08ac9ed4c2387ff540c00f6452ed4872","infoHashBuffer":{"type":"Buffer","data":[51,152,184,75,8,172,158,212,194,56,127,245,64,192,15,100,82,237,72,114]},"announce":[],"urlList":[]}}